<?xml version="1.0" standalone="no"?>
<!DOCTYPE svg PUBLIC "-//W3C//DTD SVG 20010904//EN"
 "http://www.w3.org/TR/2001/REC-SVG-20010904/DTD/svg10.dtd">
<svg version="1.0" xmlns="http://www.w3.org/2000/svg"
 width="1280.000000pt" height="1280.000000pt" viewBox="0 0 1280.000000 1280.000000"
 preserveAspectRatio="xMidYMid meet">
<g transform="translate(0.000000,1280.000000) scale(0.100000,-0.100000)"
fill="#000000" stroke="none">
<path d="M6145 12789 c-44 -4 -152 -13 -240 -19 -140 -10 -327 -30 -420 -45
-256 -40 -447 -78 -635 -125 -881 -221 -1712 -630 -2419 -1193 -367 -292 -744
-668 -1035 -1034 -790 -991 -1277 -2230 -1366 -3478 -6 -82 -15 -197 -20 -255
-13 -134 -13 -346 0 -480 5 -58 14 -172 20 -255 89 -1248 576 -2487 1366
-3478 291 -366 668 -742 1035 -1034 992 -790 2226 -1274 3474 -1363 83 -6 197
-15 255 -20 134 -13 346 -13 480 0 58 5 173 14 255 20 1248 89 2482 573 3474
1363 367 292 744 668 1035 1034 790 991 1277 2230 1366 3478 6 83 15 197 20
255 6 58 10 166 10 240 0 74 -4 182 -10 240 -5 58 -14 173 -20 255 -89 1248
-576 2487 -1366 3478 -291 366 -668 742 -1035 1034 -992 790 -2226 1274 -3474
1363 -82 6 -197 15 -255 20 -121 11 -378 11 -495 -1z m510 -2375 c663 -72
1244 -359 1613 -799 210 -250 363 -568 426 -889 65 -323 59 -763 -15 -1104
-112 -518 -406 -895 -901 -1157 -231 -122 -415 -181 -880 -285 l-98 -22 0
-266 c-1 -308 -11 -386 -64 -499 -145 -304 -619 -381 -872 -141 -62 59 -93
106 -126 194 -22 58 -23 67 -26 643 -3 649 -2 669 54 731 57 63 149 93 499
165 349 71 498 125 695 253 200 129 371 349 436 562 66 212 76 463 28 640
-104 379 -427 694 -811 790 -297 74 -674 39 -940 -86 -163 -78 -346 -244 -562
-512 -125 -156 -242 -279 -309 -325 -60 -42 -149 -60 -277 -56 -102 4 -116 7
-176 37 -114 58 -214 172 -261 297 -19 52 -22 79 -22 210 0 172 19 281 76 431
186 493 764 933 1468 1118 343 90 661 111 1045 70z m-246 -6989 c151 -48 279
-154 367 -304 73 -124 89 -186 89 -331 0 -139 -11 -184 -74 -305 -63 -121
-191 -237 -327 -296 -119 -50 -272 -59 -397 -22 -168 49 -344 192 -412 334
-88 186 -86 417 6 588 64 122 186 239 314 302 90 44 147 57 257 58 78 1 113
-4 177 -24z"/>
</g>
</svg>
